<svg width="15741" height="1934" viewBox="0 0 15741 1934" fill="none" xmlns="http://www.w3.org/2000/svg">
<path d="M11435.4 397L11688.9 835H11181.9L11435.4 397Z" fill="#41AD4A"/>
<path d="M11942.9 397L12196.9 835H11688.9L11942.9 397Z" fill="#41AD4A"/>
<path d="M11816 1274L11562 835L12070 835L11816 1274Z" fill="#41AD4A"/>
<path d="M12071 1714L11818 1275L12324 1275L12071 1714Z" fill="#41AD4A"/>
<path d="M12322.8 1273.76L11816 1274.11L12069.7 834.684L12322.8 1273.76Z" fill="#41AD4A"/>
<path d="M12576.8 1713.29L12070 1713.64L12323.7 1274.22L12576.8 1713.29Z" fill="#41AD4A"/>
<path d="M12450.4 397L12703.9 835H12196.9L12450.4 397Z" fill="#41AD4A"/>
<path d="M11942.4 396.711L11689.3 835.785L11435.6 396.362L11942.4 396.711Z" fill="#41AD4A"/>
<path d="M11434.8 396.711L11181.7 835.785L10928 396.362L11434.8 396.711Z" fill="#41AD4A"/>
<path d="M12449.8 396.711L12196.7 835.785L11943 396.362L12449.8 396.711Z" fill="#41AD4A"/>
<path d="M8724.5 397L8978 835H8471L8724.5 397Z" fill="#E70012"/>
<path d="M8219.5 1275L8473 1713H7966L8219.5 1275Z" fill="#E70012"/>
<path d="M8724.5 1275L8471 836L8978 836L8724.5 1275Z" fill="#E70012"/>
<path d="M9482.5 836L9229 398L9736 398L9482.5 836Z" fill="#E70012"/>
<path d="M8977.5 1714L8724 1276L9231 1276L8977.5 1714Z" fill="#E70012"/>
<path d="M8724.99 1274.29L8978.02 835.323L9231.66 1274.63L8724.99 1274.29Z" fill="#E70012"/>
<path d="M8976.21 835.672L9229.24 396.71L9482.87 836.021L8976.21 835.672Z" fill="#E70012"/>
<path d="M8471.35 1713.71L8724.39 1274.75L8978.02 1714.06L8471.35 1713.71Z" fill="#E70012"/>
<path d="M9230.85 396.656L8977.82 835.618L8724.18 396.307L9230.85 396.656Z" fill="#E70012"/>
<path d="M8726 1274.69L8472.97 1713.65L8219.33 1274.34L8726 1274.69Z" fill="#E70012"/>
<path d="M3553.5 418L4285 1683H2822L3553.5 418Z" fill="#0000FE"/>
<path d="M4282.5 418L5014 1683H3551L4282.5 418Z" fill="#0000FE"/>
<path d="M10507.4 1370.22V1720.36H10157.2V1370.22H10507.4Z" fill="#FFDD00"/>
<path d="M10507.2 1020.08V1370.22H10157.1V1020.08H10507.2Z" fill="#FFDD00"/>
<path d="M10507.4 670.246V1020.39H10157.2V670.246H10507.4Z" fill="#FFDD00"/>
<path d="M10332.4 0L10579.9 247.5L10332.4 495L10084.9 247.5L10332.4 0Z" fill="#FFDD00"/>
<path d="M335 720.914L670 1055L335 1389.09L0 1055L335 720.914Z" fill="#FE4DD3"/>
<path d="M670 385L1005 720L670 1055L335 720L670 385Z" fill="#FE4DD3"/>
<path d="M670 1055L1005 1390L670 1725L335 1390L670 1055Z" fill="#FE4DD3"/>
<path d="M5546.14 1444.86V1708.95H5282.05V1444.86H5546.14Z" fill="#FFDD00"/>
<path d="M5546.14 1180.99V1445.09H5282.05V1180.99H5546.14Z" fill="#FFDD00"/>
<path d="M5546.14 917.009V1181.1H5282.05V917.009H5546.14Z" fill="#FFDD00"/>
<path d="M5810.24 917.009V1181.1H5546.14V917.009H5810.24Z" fill="#FFDD00"/>
<path d="M6074.22 917.009V1181.1H5810.12V917.009H6074.22Z" fill="#FFDD00"/>
<path d="M6074.22 653.028V917.124H5810.12V653.028H6074.22Z" fill="#FFDD00"/>
<path d="M6074.22 389.048V653.144H5810.12V389.048H6074.22Z" fill="#FFDD00"/>
<path d="M5810.24 389.048V653.144H5546.14V389.048H5810.24Z" fill="#FFDD00"/>
<path d="M5546.26 389.048V653.144H5282.16V389.048H5546.26Z" fill="#FFDD00"/>
<path d="M5546.26 653.028V917.124H5282.16V653.028H5546.26Z" fill="#FFDD00"/>
<path d="M15038.1 1486.85V1767.62H14757.4V1486.85H15038.1Z" fill="#FE4DD3"/>
<path d="M15038.1 1206.32V1487.09H14757.4V1206.32H15038.1Z" fill="#FE4DD3"/>
<path d="M15318.6 1207.33V1488.1H15037.8V1207.33H15318.6Z" fill="#FE4DD3"/>
<path d="M15599.9 1486.74V1767.5H15319.1V1486.74H15599.9Z" fill="#FE4DD3"/>
<path d="M15038.1 925.677V1206.45H14757.4V925.677H15038.1Z" fill="#FE4DD3"/>
<path d="M15318.9 925.677V1206.45H15038.2V925.677H15318.9Z" fill="#FE4DD3"/>
<path d="M15599.6 925.677V1206.45H15318.8V925.677H15599.6Z" fill="#FE4DD3"/>
<path d="M15599.6 645.033V925.801H15318.8V645.033H15599.6Z" fill="#FE4DD3"/>
<path d="M15599.6 364.384V645.153H15318.8V364.384H15599.6Z" fill="#FE4DD3"/>
<path d="M15318.9 364.384V645.153H15038.2V364.384H15318.9Z" fill="#FE4DD3"/>
<path d="M15038.3 364.384V645.153H14757.5V364.384H15038.3Z" fill="#FE4DD3"/>
<path d="M15038.3 645.033V925.801H14757.5V645.033H15038.3Z" fill="#FE4DD3"/>
<circle cx="2038.5" cy="1065.5" r="692.5" fill="#FFA500"/>
<circle cx="7116" cy="1065.5" r="692.5" fill="#41AD4A"/>
<circle cx="13733.5" cy="1050.5" r="710.5" fill="#0000FE"/>
</svg>
