<?xml version="1.0" encoding="UTF-8"?><svg id="Layer_1" xmlns="http://www.w3.org/2000/svg" viewBox="0 0 1978 163.6"><defs><style>.cls-1{fill:#41ad4a;}.cls-2{fill:#e30d1b;}.cls-3{fill:orange;}.cls-4{fill:#fd0;}.cls-5{fill:#e70012;}.cls-6{fill:#fe4dd3;}.cls-7{fill:#0000fe;}</style></defs><polygon class="cls-1" points="1612.1 .6 1612.1 54.7 1558.1 54.7 1558.1 54.6 1558.1 54.6 1558.1 54.7 1558.1 54.7 1558.1 162.6 1504 162.6 1504 54.7 1504 54.7 1504 54.6 1504 54.6 1504 54.7 1450 54.7 1450 .6 1612.1 .6"/><rect class="cls-1" x="1336.6" y=".6" width="54.1" height="161.9"/><polygon class="cls-5" points="1247 54.9 1184.5 54.9 1184.4 54.8 1184.4 54.6 1184.2 54.6 1184.3 54.8 1184.2 54.9 1184.5 54.9 1215.5 108.4 1215.6 108.6 1215.5 108.8 1184.4 162.6 1059 162.6 1090.3 108.4 1152.8 108.4 1153 108.8 1153.2 108.8 1153.1 108.6 1153.2 108.4 1152.8 108.4 1121.8 54.9 1121.8 54.8 1121.8 54.6 1153 .7 1278.4 .7 1247 54.9"/><polygon class="cls-2" points="1153.4 107.6 1153.1 107.6 1153 107.4 1153.1 107.3 1153.4 107.6"/><polygon class="cls-2" points="1153.1 107.3 1153 107.4 1152.9 107.3 1153.1 107.3"/><polygon class="cls-2" points="1153.1 107.3 1153.4 107.3 1153.3 107.4 1153.1 107.3"/><polygon class="cls-2" points="1215.3 107.3 1215.2 107.4 1215.1 107.3 1215.3 107.3"/><polygon class="cls-2" points="1153.3 107.4 1153.4 107.6 1153.1 107.6 1153.3 107.4"/><polygon class="cls-2" points="1184.3 54.1 1184.4 54.2 1184.1 54.2 1184.1 54.1 1184.2 53.9 1184.3 54.1"/><polygon class="cls-2" points="1215.3 107.6 1215.1 107.6 1215.2 107.4 1215.3 107.6"/><polygon class="cls-2" points="1122.1 53.9 1122.2 53.9 1122.1 54.1 1122.1 53.9"/><polygon class="cls-2" points="1153.4 107.3 1153.1 107.6 1152.9 107.3 1153.4 107.3"/><polygon class="cls-2" points="1184.2 53.9 1184.1 54.1 1184.1 53.9 1184.2 53.9"/><polygon class="cls-2" points="1122.1 54.1 1122.2 54.2 1122.1 54.2 1122.1 54.1"/><polygon class="cls-2" points="1184.2 54.2 1184.1 54.2 1184.1 54.1 1184.2 54.2"/><polygon class="cls-2" points="1184.4 54.2 1184.2 54.2 1184.3 54.1 1184.4 54.2"/><polygon class="cls-2" points="1184.3 54.1 1184.2 54.2 1184.1 54.1 1184.1 53.9 1184.2 53.9 1184.3 54.1"/><polygon class="cls-3" points="645.2 162.6 364.7 162.6 458.3 .7 505 81.4 551.6 .7 645.2 162.6"/><polygon class="cls-6" points="81 81.7 121.5 122.1 81 162.6 40.5 122.1 40.5 122.1 0 81.7 40.5 41.2 40.5 41.2 81 .7 121.5 41.2 81 81.7"/><path class="cls-3" d="M685.2,0V65h0v97.5h32.5V97.5h65.1V0h-97.6Zm65,32.6h0v32.5h-32.5V32.6h32.5Z"/><path class="cls-7" d="M1978,97.9V.6h-97.3V65.4h0v97h32.4v-32.3h0v-.1h0v.1h32.4v32.4h32.4v-32.4h-32.4v-32.3h32.5v.1Zm-64.9-32.5h0V33h32.4v32.4h-32.4Z"/><circle class="cls-6" cx="250.5" cy="81.8" r="81.8"/><circle class="cls-4" cx="935.1" cy="81.8" r="81.8"/><circle class="cls-7" cx="1742.5" cy="81.8" r="81.8"/></svg>